# xmcd CD database file
#
# Track frame offsets:
#	150
#	14007
#	57209
#	64356
#	77752
#	91539
#	97829
#	103592
#	125989
#	132759
#	139224
#	163930
#
# Disc length: 2441 seconds
#
# Revision: 0
# Processed by: cddbd v1.5.2PL0 Copyright (c) Steve Scherf et al.
# Submitted via: CDex 1.86
#
DISCID=a309870c
DTITLE=Van Morrison - Brown Eyed Girl
DYEAR=2007
DGENRE=Blues
TTITLE0=Brown Eyed Girl
TTITLE1=T.b. Sheets
TTITLE2=The Big Royalty Check
TTITLE3=Goodbye Baby (Baby Goodbye)
TTITLE4=Ro Ro Rosey
TTITLE5=Blow In Your Nose
TTITLE6=Twist And Shake
TTITLE7=It' All Right
TTITLE8=Ring Worm
TTITLE9=Dum Dum George
TTITLE10=The Back Boom
TTITLE11=Joe Harper Saturday Morning
EXTD=YEAR: 2007
EXTT0=
EXTT1=
EXTT2=
EXTT3=
EXTT4=
EXTT5=
EXTT6=
EXTT7=
EXTT8=
EXTT9=
EXTT10=
EXTT11=
PLAYORDER=
